<svg xmlns="http://www.w3.org/2000/svg" viewBox="0 0 512 512" width="512" height="512">
  <rect width="512" height="512" rx="96" fill="#0ea5e9"/>
  <g fill="none" stroke="#ffffff" stroke-width="20" stroke-linecap="round" stroke-linejoin="round">
    <path d="M150 150 h212 l-18 230 a24 24 0 0 1 -24 22 H192 a24 24 0 0 1 -24 -22 Z" fill="#0b4a6f"/>
    <path d="M150 150 l-14 -44 h70" />
    <circle cx="256" cy="300" r="78" fill="#0ea5e9"/>
    <path d="M188 290 c24 -28 40 12 68 -4 c20 -12 36 8 48 0" />
    <path d="M186 320 c24 -28 40 12 68 -4 c20 -12 36 8 50 0" />
  </g>
</svg>
